<?xml version="1.0" encoding="UTF-8"?>
<svg version="1.1" xmlns="http://www.w3.org/2000/svg" width="1280" height="392">
<path d="M0 0 C0.94043997 -0.00495952 1.88087993 -0.00991903 2.84981808 -0.01502883 C6.00703172 -0.02800154 9.16382361 -0.01959477 12.32104778 -0.01129913 C14.6051047 -0.01618723 16.88915914 -0.02237665 19.17320937 -0.02975702 C25.45459672 -0.04618992 31.73585884 -0.04383175 38.01726019 -0.03838205 C44.09433318 -0.03598974 50.17136512 -0.04762719 56.24842562 -0.0587552 C70.21388962 -0.08367045 84.17931541 -0.08818395 98.14479808 -0.08628923 C108.9292581 -0.08491635 119.71370485 -0.08873286 130.49816227 -0.09621429 C132.0473688 -0.09726463 133.59657534 -0.09831224 135.14578187 -0.09935716 C135.91479876 -0.0998765 136.68381565 -0.10039585 137.47613608 -0.10093093 C138.63176912 -0.10171114 138.63176912 -0.10171114 139.81074828 -0.10250711 C140.58245722 -0.10303111 141.35416617 -0.1035551 142.14926023 -0.10409497 C163.85592825 -0.11867943 185.5625914 -0.12696025 207.26926422 -0.12234497 C208.49684965 -0.12208704 208.49684965 -0.12208704 209.74923479 -0.1218239 C213.89718769 -0.120935 218.04514057 -0.11999019 222.19309346 -0.11902589 C223.01689368 -0.11883485 223.8406939 -0.11864382 224.68945777 -0.118447 C226.35538234 -0.11805991 228.02130692 -0.11766958 229.68723149 -0.11727602 C255.6083128 -0.11130616 281.52930484 -0.12674317 307.45036602 -0.15888214 C336.57163005 -0.19495833 365.69283746 -0.21429186 394.81412524 -0.20934343 C397.91926364 -0.20887346 401.02440203 -0.2084632 404.12954044 -0.20809174 C405.27638889 -0.20793816 405.27638889 -0.20793816 406.446406 -0.20778148 C417.98852655 -0.20658661 429.53058594 -0.21855429 441.07269001 -0.23723602 C454.19990685 -0.25847308 467.32699539 -0.2623229 480.45421795 -0.24293643 C487.15315866 -0.23351874 493.85181226 -0.23267759 500.55074978 -0.25329208 C506.68283975 -0.27195369 512.81446382 -0.26755195 518.94653579 -0.24474627 C521.16519839 -0.24054841 523.38389639 -0.2448001 525.60252164 -0.25834221 C546.9475723 -0.37975829 546.9475723 -0.37975829 554.514575 5.38311005 C554.514575 6.04311005 554.514575 6.70311005 554.514575 7.38311005 C555.504575 7.71311005 556.494575 8.04311005 557.514575 8.38311005 C557.514575 9.04311005 557.514575 9.70311005 557.514575 10.38311005 C558.504575 10.71311005 559.494575 11.04311005 560.514575 11.38311005 C560.514575 12.04311005 560.514575 12.70311005 560.514575 13.38311005 C561.174575 13.38311005 561.834575 13.38311005 562.514575 13.38311005 C563.69816875 14.8870163 563.69816875 14.8870163 564.952075 16.94561005 C565.36328594 17.60689911 565.77449688 18.26818817 566.19816875 18.9495163 C569.8207129 25.64638573 570.95248485 30.40556024 570.88879681 37.9743576 C570.89277121 38.92152248 570.89674562 39.86868735 570.90084046 40.84455419 C570.91044068 44.00827644 570.89865907 47.17154899 570.88688946 50.33525848 C570.8893181 52.60725827 570.89303812 54.87925698 570.89795208 57.15125275 C570.90735256 63.31412341 570.89794374 69.47683503 570.88461995 75.63969326 C570.87330353 82.08584301 570.87741297 88.53198496 570.87936687 94.97814178 C570.88024953 105.79887093 570.86924403 116.61952794 570.85075665 127.44023895 C570.83173599 138.57600038 570.82467411 149.711689 570.83024883 160.84746552 C570.83694881 174.27066354 570.83366784 187.69380752 570.82114506 201.11700439 C570.81649316 206.24454851 570.81562774 211.37207287 570.8177309 216.49961853 C570.81960973 222.53081983 570.8115412 228.56192732 570.79567051 234.59310722 C570.79141607 236.81072794 570.79058485 239.02835816 570.79336071 241.24598122 C570.79656632 244.26402394 570.78754185 247.28178347 570.77527142 250.29979706 C570.77905074 251.18509275 570.78283006 252.07038845 570.78672391 252.98251128 C570.74290507 259.04061494 570.74290507 259.04061494 568.514575 262.38311005 C568.12957609 264.03860536 567.78664366 265.70535335 567.514575 267.38311005 C566.854575 267.38311005 566.194575 267.38311005 565.514575 267.38311005 C565.184575 269.03311005 564.854575 270.68311005 564.514575 272.38311005 C563.854575 272.38311005 563.194575 272.38311005 562.514575 272.38311005 C562.25289532 272.97221161 561.99121563 273.56131317 561.72160625 274.1682663 C557.93032252 281.1250879 550.77301864 284.72049703 543.6018157 287.35377979 C535.17685108 289.78224583 526.03663078 289.05879325 517.35948467 289.00457001 C515.1107827 289.00890318 512.86208407 289.01542294 510.61339402 289.02393007 C504.45754167 289.04087914 498.30209768 289.02676959 492.14626694 289.00741529 C486.18212991 288.99355134 480.21804294 289.00324897 474.25390681 289.01222108 C461.30954918 289.03077231 448.36532955 289.02112537 435.42098322 288.99974344 C424.09551374 288.98116823 412.77009055 288.97276623 401.44460583 288.97431183 C400.69263292 288.9744035 399.94066001 288.97449518 399.16590004 288.97458963 C396.11324896 288.9749828 393.06059789 288.97543243 390.00794683 288.97596102 C361.39088085 288.9808287 332.77389697 288.95819134 304.15685651 288.9220048 C278.73831861 288.89000003 253.3198508 288.87796366 227.90129375 288.88408661 C226.2685447 288.88447345 224.63579565 288.88485991 223.0030466 288.88524598 C222.19584098 288.88543732 221.38863536 288.88562867 220.55696897 288.88582581 C216.49350472 288.88678017 212.43004046 288.88769454 208.36657619 288.88856506 C207.56489507 288.88873886 206.76321394 288.88891265 205.93723944 288.88909171 C184.68701689 288.89344714 163.4368019 288.88343234 142.18658471 288.86872721 C141.4306465 288.86820707 140.6747083 288.86768692 139.89586287 288.86715102 C138.76404046 288.866372 138.76404046 288.866372 137.60935296 288.86557725 C136.47961845 288.86480064 136.47961845 288.86480064 135.32706103 288.86400834 C133.81030353 288.86296026 132.29354603 288.86190004 130.77678855 288.86082762 C120.20618765 288.8534492 109.63559746 288.85135839 99.0649943 288.85282163 C85.4453168 288.85466756 71.82570533 288.84659598 58.20604941 288.82118016 C51.63891106 288.80917987 45.0718417 288.80219958 38.50469112 288.80801773 C32.49449285 288.81318519 26.48448016 288.8045165 20.47431365 288.78474313 C18.29892231 288.77999915 16.12351292 288.78030869 13.94812426 288.7861535 C10.99237598 288.79332826 8.03724374 288.78206809 5.08154202 288.76622009 C4.23613724 288.7726719 3.39073246 288.7791237 2.51970935 288.78577101 C-3.28154401 288.72734874 -8.09475861 287.50574877 -13.485425 285.38311005 C-13.485425 284.72311005 -13.485425 284.06311005 -13.485425 283.38311005 C-14.24855 283.25936005 -15.011675 283.13561005 -15.797925 283.00811005 C-18.485425 282.38311005 -18.485425 282.38311005 -21.485425 280.38311005 C-21.485425 279.72311005 -21.485425 279.06311005 -21.485425 278.38311005 C-22.145425 278.38311005 -22.805425 278.38311005 -23.485425 278.38311005 C-25.110425 277.00811005 -25.110425 277.00811005 -26.485425 275.38311005 C-26.485425 274.72311005 -26.485425 274.06311005 -26.485425 273.38311005 C-27.145425 273.38311005 -27.805425 273.38311005 -28.485425 273.38311005 C-28.485425 272.39311005 -28.485425 271.40311005 -28.485425 270.38311005 C-29.145425 270.38311005 -29.805425 270.38311005 -30.485425 270.38311005 C-37.427493 259.0233624 -35.77181647 244.0927229 -35.74421406 231.29131317 C-35.74692802 229.1711083 -35.75049122 227.05090437 -35.75483418 224.93070221 C-35.7639122 219.20142723 -35.7604329 213.4722247 -35.754076 207.74294853 C-35.7489922 201.73078855 -35.75371406 195.71863454 -35.75684834 189.7064743 C-35.76048105 179.61250959 -35.75570711 169.51857421 -35.74616718 159.42461395 C-35.73528399 147.77527087 -35.73881006 136.12599782 -35.74981999 124.47665644 C-35.75891266 114.45252463 -35.76016847 104.42841383 -35.75494266 94.40427923 C-35.75183384 88.4270421 -35.75138362 82.44983783 -35.75801563 76.47260284 C-35.76381729 70.85170039 -35.75974077 65.23088771 -35.74822712 59.60999489 C-35.74559558 57.55417848 -35.7463197 55.49835444 -35.75075245 53.44254112 C-35.7706962 43.24876682 -35.76041298 33.38521343 -33.485425 23.38311005 C-32.825425 23.38311005 -32.165425 23.38311005 -31.485425 23.38311005 C-31.42355 22.70248505 -31.361675 22.02186005 -31.297925 21.32061005 C-29.42679757 14.55576475 -24.17834471 9.29788859 -18.485425 5.38311005 C-17.825425 5.38311005 -17.165425 5.38311005 -16.485425 5.38311005 C-16.485425 4.72311005 -16.485425 4.06311005 -16.485425 3.38311005 C-10.80292716 0.49792995 -6.32277292 -0.04702072 0 0 Z M160.514575 105.38311005 C160.514575 140.36311005 160.514575 175.34311005 160.514575 211.38311005 C167.114575 211.38311005 173.714575 211.38311005 180.514575 211.38311005 C180.57516094 208.66318817 180.63574688 205.9432663 180.69816875 203.14092255 C180.75993766 200.51312674 180.82333384 197.8853749 180.88688946 195.25762177 C180.93026066 193.4282343 180.97193412 191.59880577 181.01188946 189.76934052 C181.06953918 187.14307518 181.13324865 184.51701695 181.19816875 181.89092255 C181.21488125 181.0700415 181.23159374 180.24916046 181.24881268 179.40340424 C181.4007033 173.61085346 181.4007033 173.61085346 182.514575 171.38311005 C186.18507598 171.6047744 187.34929712 172.20677769 189.90910625 174.93779755 C190.7289844 176.03431964 191.53431593 177.14182427 192.327075 178.25811005 C192.75721905 178.83947723 193.18736309 179.42084442 193.6305418 180.0198288 C194.94048016 181.79706643 196.23027358 183.58728174 197.514575 185.38311005 C198.95135534 187.38362711 200.38878931 189.383675 201.827075 191.38311005 C202.7861375 192.71728973 202.7861375 192.71728973 203.764575 194.07842255 C205.20155462 195.97087339 206.61734862 197.61962226 208.327075 199.25811005 C210.58648663 201.45296706 211.90483007 203.70020182 213.514575 206.38311005 C214.174575 206.38311005 214.834575 206.38311005 215.514575 206.38311005 C215.82395 207.02248505 216.133325 207.66186005 216.452075 208.32061005 C217.34909131 210.31921826 217.34909131 210.31921826 218.514575 211.38311005 C220.44125008 211.47059212 222.37109361 211.49008339 224.29973125 211.4807663 C225.46955547 211.47754364 226.63937969 211.47432098 227.84465313 211.47100067 C229.07635235 211.46262177 230.30805157 211.45424286 231.577075 211.44561005 C232.81264141 211.44109833 234.04820782 211.43658661 235.32121563 211.43193817 C238.38571617 211.42010612 241.45012222 211.40362178 244.514575 211.38311005 C243.08866835 208.45612853 241.54517447 205.91970323 239.577075 203.32061005 C239.07305157 202.64900848 238.56902813 201.97740692 238.04973125 201.2854538 C236.61811498 199.51141531 235.23084259 197.88425963 233.514575 196.38311005 C232.854575 196.38311005 232.194575 196.38311005 231.514575 196.38311005 C231.1123875 195.52459442 231.1123875 195.52459442 230.702075 194.64873505 C229.47324865 192.3042637 228.08935324 190.25906067 226.514575 188.13311005 C225.99895 187.4267038 225.483325 186.72029755 224.952075 185.99248505 C224.4777 185.4613913 224.003325 184.93029755 223.514575 184.38311005 C222.854575 184.38311005 222.194575 184.38311005 221.514575 184.38311005 C220.514575 182.38311005 219.514575 180.38311005 218.514575 178.38311005 C217.854575 178.38311005 217.194575 178.38311005 216.514575 178.38311005 C216.24645 177.80561005 215.978325 177.22811005 215.702075 176.63311005 C214.5844463 174.3214776 214.5844463 174.3214776 212.827075 172.38311005 C211.514575 170.38311005 211.514575 170.38311005 211.69035625 168.3557663 C212.514575 166.38311005 212.514575 166.38311005 214.2567625 165.4417038 C214.96059063 165.23674286 215.66441875 165.03178192 216.389575 164.82061005 C219.54228999 163.88410246 221.41864027 162.97336901 223.514575 160.38311005 C223.514575 159.72311005 223.514575 159.06311005 223.514575 158.38311005 C224.174575 158.38311005 224.834575 158.38311005 225.514575 158.38311005 C227.96643656 155.6247658 229.21844644 152.80859269 230.514575 149.38311005 C230.844575 149.05311005 231.174575 148.72311005 231.514575 148.38311005 C233.31682144 142.0505592 233.67749605 136.83203586 232.514575 130.38311005 C232.432075 129.22811005 232.349575 128.07311005 232.264575 126.88311005 C231.04531659 121.19323745 227.90386921 116.23201376 223.514575 112.38311005 C221.19649136 111.34825128 218.86282202 110.34756864 216.514575 109.38311005 C215.524575 108.72311005 214.534575 108.06311005 213.514575 107.38311005 C211.30214651 106.96528618 211.30214651 106.96528618 208.952075 106.82061005 C204.70635583 106.47900046 204.70635583 106.47900046 202.514575 105.38311005 C188.654575 105.38311005 174.794575 105.38311005 160.514575 105.38311005 Z M325.514575 107.38311005 C324.99917711 108.90664888 324.54889056 110.45271095 324.139575 112.00811005 C323.22839982 115.19948978 322.27395548 118.08610817 320.702075 121.00811005 C318.16948547 125.75060396 316.43392991 130.78707002 314.62077618 135.83672333 C313.48106003 138.97461376 312.37662494 141.59003515 310.514575 144.38311005 C309.82656608 146.37586898 309.16186615 148.37675549 308.514575 150.38311005 C307.7619933 152.24475954 306.99058966 154.09889331 306.202075 155.94561005 C304.39543616 160.2317415 302.6689064 164.53592376 301.014575 168.88311005 C297.31765042 178.55730522 293.29001307 188.01952277 288.84660625 197.37529755 C286.79021163 202.01876928 285.51232152 206.39437749 284.514575 211.38311005 C292.104575 211.38311005 299.694575 211.38311005 307.514575 211.38311005 C309.34475274 207.11269532 310.9032385 203.43854618 312.139575 199.07061005 C313.42204831 194.56816343 313.42204831 194.56816343 314.514575 192.38311005 C329.694575 192.38311005 344.874575 192.38311005 360.514575 192.38311005 C363.63842122 198.63080247 366.04915096 204.85306797 368.514575 211.38311005 C376.104575 211.38311005 383.694575 211.38311005 391.514575 211.38311005 C390.524575 208.41311005 389.534575 205.44311005 388.514575 202.38311005 C387.84790834 200.38311005 387.18124167 198.38311005 386.514575 196.38311005 C385.854575 196.38311005 385.194575 196.38311005 384.514575 196.38311005 C384.39598125 195.50783661 384.2773875 194.63256317 384.1552 193.7307663 C383.53055438 190.46661202 382.59789567 187.8543365 381.264575 184.82061005 C379.37724688 180.43502677 377.58633758 176.03360978 375.889575 171.57061005 C373.84729509 166.22389585 371.71534911 160.95345716 369.29191875 155.76592255 C366.92997506 150.68395624 364.84640478 145.83150459 363.514575 140.38311005 C362.854575 140.38311005 362.194575 140.38311005 361.514575 140.38311005 C361.555825 139.59936005 361.597075 138.81561005 361.639575 138.00811005 C361.80186234 135.22194886 361.80186234 135.22194886 359.514575 133.38311005 C358.96057146 131.92331071 358.46616295 130.44026798 358.014575 128.94561005 C357.09774946 125.9210823 356.30486036 124.06853808 354.514575 121.38311005 C353.99542908 119.98060064 353.51916394 118.56178164 353.077075 117.13311005 C351.81931456 113.07952781 350.2152754 109.2677182 348.514575 105.38311005 C345.05631159 105.32521998 341.59817207 105.28955184 338.139575 105.25811005 C337.15473125 105.24135223 336.1698875 105.22459442 335.1552 105.2073288 C334.21418438 105.20088348 333.27316875 105.19443817 332.3036375 105.18779755 C331.43432598 105.17732391 330.56501446 105.16685028 329.66936016 105.15605927 C327.30111562 105.17715896 327.30111562 105.17715896 325.514575 107.38311005 Z M398.514575 105.38311005 C398.514575 141.35311005 398.514575 177.32311005 398.514575 214.38311005 C418.314575 214.38311005 438.114575 214.38311005 458.514575 214.38311005 C458.514575 208.44311005 458.514575 202.50311005 458.514575 196.38311005 C454.77693829 196.30963348 454.77693829 196.30963348 450.96379375 196.23467255 C448.55105352 196.18066553 446.13841275 196.123357 443.72575665 196.06572723 C442.04874866 196.02744012 440.37165862 195.99258673 438.69450665 195.96123505 C436.28397068 195.91557825 433.87399943 195.85758595 431.46379375 195.79717255 C430.71369534 195.78562134 429.96359692 195.77407013 429.19076824 195.76216888 C425.45329788 195.65615546 423.70028877 195.50691923 420.514575 193.38311005 C420.19860411 190.54509141 420.07720065 187.92057398 420.08220196 185.07793427 C420.07201031 184.219328 420.06181866 183.36072174 420.05131817 182.47609711 C420.02105434 179.62993204 420.01190192 176.78410275 420.00285625 173.93779755 C419.98601948 171.96766276 419.96787061 169.99753877 419.94845867 168.02742767 C419.90084378 162.83576077 419.87110886 157.64413767 419.84501934 152.45232391 C419.81527163 147.15702917 419.76872153 141.86188555 419.72355938 136.5667038 C419.63739549 126.17223396 419.57166085 115.7777803 419.514575 105.38311005 C412.584575 105.38311005 405.654575 105.38311005 398.514575 105.38311005 Z M74.514575 107.38311005 C74.514575 112.99311005 74.514575 118.60311005 74.514575 124.38311005 C82.28917753 128.27041131 91.82984069 126.02124612 100.514575 126.38311005 C100.844575 155.42311005 101.174575 184.46311005 101.514575 214.38311005 C108.444575 214.38311005 115.374575 214.38311005 122.514575 214.38311005 C122.844575 185.34311005 123.174575 156.30311005 123.514575 126.38311005 C132.094575 126.05311005 140.674575 125.72311005 149.514575 125.38311005 C149.514575 119.44311005 149.514575 113.50311005 149.514575 107.38311005 C124.764575 107.38311005 100.014575 107.38311005 74.514575 107.38311005 Z M254.514575 107.38311005 C254.514575 142.69311005 254.514575 178.00311005 254.514575 214.38311005 C261.774575 214.38311005 269.034575 214.38311005 276.514575 214.38311005 C276.514575 179.07311005 276.514575 143.76311005 276.514575 107.38311005 C269.254575 107.38311005 261.994575 107.38311005 254.514575 107.38311005 Z " fill="#FEFEFE" transform="translate(71.48542499542236,56.61688995361328)"/>
<path d="M0 0 C1.24402427 -0.00631043 1.24402427 -0.00631043 2.51318034 -0.01274834 C5.29201027 -0.02318692 8.07033909 -0.01227889 10.84916162 -0.00147593 C12.87017744 -0.00460566 14.89119157 -0.00904964 16.91220194 -0.01468903 C22.48643155 -0.02640492 28.06050592 -0.01936367 33.63473309 -0.00935517 C39.69127046 -0.00176408 45.74778352 -0.01151726 51.80431747 -0.01908517 C62.42601273 -0.0299381 73.04765652 -0.02968173 83.66935015 -0.02194369 C95.06678515 -0.01369107 106.46419336 -0.01194798 117.86162996 -0.01815569 C118.58139579 -0.01854321 119.30116161 -0.01893073 120.04273853 -0.01932999 C122.97421284 -0.0209298 125.90568712 -0.02257592 128.83716137 -0.02428082 C156.14501738 -0.04015148 183.45285543 -0.04122376 210.76071405 -0.03283846 C211.57000231 -0.03259008 212.37929057 -0.03234169 213.21310272 -0.03208578 C214.42897356 -0.03171259 214.42897356 -0.03171259 215.66940744 -0.03133187 C240.35209735 -0.02376601 265.03477983 -0.02180643 289.71747065 -0.0253998 C291.36955613 -0.02563224 293.02164162 -0.02586371 294.67372711 -0.02609421 C301.31257144 -0.02702559 307.95141577 -0.02798159 314.59026009 -0.02897351 C333.14922696 -0.03172469 351.70819385 -0.03343638 370.26716089 -0.03433192 C371.11233188 -0.03437286 371.95750286 -0.03441379 372.82828509 -0.03445597 C399.76399161 -0.03568402 426.69969554 -0.032302 453.63540125 -0.02578318 C454.94608801 -0.02546706 454.94608801 -0.02546706 456.28325329 -0.02514455 C470.47356026 -0.0217096 484.66386718 -0.01805126 498.8541741 -0.01437403 C555.13656043 0.00019527 611.41892535 -0.00048095 667.70131159 -0.01506579 C681.88441449 -0.01872928 696.0675174 -0.0223624 710.25062037 -0.02578318 C711.12389469 -0.02599453 711.99716902 -0.02620587 712.8969062 -0.02642362 C739.80422472 -0.03289098 766.71154145 -0.03563522 793.61886072 -0.03433192 C794.46341313 -0.03429116 795.30796554 -0.03425041 796.17811044 -0.03420842 C814.71636784 -0.03327104 833.25462505 -0.03137022 851.79288227 -0.02860041 C858.42583477 -0.02761296 865.05878727 -0.02667372 871.69173978 -0.02574828 C873.34188517 -0.02551611 874.99203057 -0.02527992 876.64217596 -0.02503969 C901.31909341 -0.02145709 925.9960025 -0.02451177 950.6729189 -0.03208578 C951.48220716 -0.03233416 952.29149542 -0.03258255 953.12530756 -0.03283846 C953.9331066 -0.03308651 954.74090564 -0.03333456 955.57318343 -0.03359012 C982.8013401 -0.04185951 1010.02947522 -0.0388317 1037.2576288 -0.02299623 C1040.17988306 -0.02133913 1043.10213734 -0.01972902 1046.02439165 -0.01815569 C1047.10016697 -0.01756976 1047.10016697 -0.01756976 1048.19767513 -0.016972 C1059.56571719 -0.01104879 1070.93373249 -0.01518095 1082.30177214 -0.02346271 C1093.47280998 -0.03138768 1104.64380291 -0.02837916 1115.81483866 -0.01442045 C1121.79350315 -0.0072552 1127.77206592 -0.00490374 1133.75072736 -0.0156384 C1139.18495065 -0.02529644 1144.61898155 -0.02125992 1150.0531907 -0.00609642 C1152.01134714 -0.00306403 1153.96951934 -0.00510174 1155.92766333 -0.01271423 C1158.5806838 -0.02229977 1161.23303235 -0.01345753 1163.88602161 0 C1164.64358364 -0.00717223 1165.40114566 -0.01434445 1166.18166411 -0.02173402 C1173.53865505 0.05435786 1179.43339811 2.71832985 1185.94301081 6.06354749 C1187.22691706 6.71903577 1187.22691706 6.71903577 1188.53676081 7.38776624 C1189.16582331 7.71389905 1189.79488581 8.04003187 1190.44301081 8.37604749 C1190.44301081 9.03604749 1190.44301081 9.69604749 1190.44301081 10.37604749 C1191.52582331 10.49979749 1191.52582331 10.49979749 1192.63051081 10.62604749 C1197.08170379 11.81303229 1200.45686553 14.91840559 1203.44301081 18.37604749 C1203.44301081 19.03604749 1203.44301081 19.69604749 1203.44301081 20.37604749 C1204.10301081 20.37604749 1204.76301081 20.37604749 1205.44301081 20.37604749 C1206.41957331 22.16641208 1207.39613581 23.95677666 1208.37269831 25.74714124 C1209.35711105 27.54223064 1209.35711105 27.54223064 1211.44301081 28.37604749 C1212.40785456 30.01276624 1212.40785456 30.01276624 1213.38051081 32.06354749 C1214.56862479 34.5594735 1215.77324349 36.96312783 1217.13051081 39.37604749 C1220.06437358 46.08201955 1219.58678669 53.69683832 1219.56999445 60.89583814 C1219.57233444 62.44839092 1219.57233444 62.44839092 1219.57472169 64.0323084 C1219.57869834 67.48747891 1219.57555499 70.9426052 1219.57240534 74.39777601 C1219.57376085 76.8801778 1219.57554163 79.36257939 1219.5777154 81.8449806 C1219.58179882 87.87948517 1219.5812054 93.91397249 1219.57830276 99.94847638 C1219.57604123 104.85383313 1219.57573945 109.75918639 1219.57682657 114.66454351 C1219.57705642 115.71313563 1219.57705642 115.71313563 1219.57729091 116.78291143 C1219.57761065 118.20318004 1219.57793486 119.62344865 1219.57826351 121.04371726 C1219.5811125 134.34975909 1219.57784027 147.65579402 1219.57246314 160.96183472 C1219.56799465 172.37261417 1219.56877253 183.78338346 1219.5733819 195.19416273 C1219.57873622 208.4552612 1219.58083889 221.71635364 1219.57776964 234.97745305 C1219.5774511 236.39209111 1219.57713673 237.80672918 1219.57682657 239.22136724 C1219.5766723 239.91734225 1219.57651802 240.61331726 1219.57635907 241.33038243 C1219.57549657 246.22888666 1219.57695104 251.12738706 1219.57930613 256.02589071 C1219.58240728 262.62095801 1219.58019205 269.21600909 1219.57441187 275.81107557 C1219.57308931 278.23181537 1219.57346986 280.65255679 1219.57567453 283.07329595 C1219.57840573 286.37663266 1219.5749807 289.67990771 1219.56999445 292.98324049 C1219.57334053 294.42108509 1219.57334053 294.42108509 1219.57675421 295.88797706 C1219.55463467 303.43973951 1219.11190817 309.62527635 1215.44301081 316.37604749 C1214.75773036 318.03514753 1214.08409218 319.69937314 1213.44301081 321.37604749 C1212.78301081 321.37604749 1212.12301081 321.37604749 1211.44301081 321.37604749 C1211.11301081 323.02604749 1210.78301081 324.67604749 1210.44301081 326.37604749 C1209.78301081 326.37604749 1209.12301081 326.37604749 1208.44301081 326.37604749 C1208.23676081 327.07729749 1208.03051081 327.77854749 1207.81801081 328.50104749 C1206.05957301 332.17778108 1203.6387294 334.84899828 1200.44301081 337.37604749 C1199.78301081 337.37604749 1199.12301081 337.37604749 1198.44301081 337.37604749 C1198.44301081 338.03604749 1198.44301081 338.69604749 1198.44301081 339.37604749 C1197.45301081 339.37604749 1196.46301081 339.37604749 1195.44301081 339.37604749 C1195.44301081 340.03604749 1195.44301081 340.69604749 1195.44301081 341.37604749 C1194.19301081 343.00104749 1194.19301081 343.00104749 1192.44301081 344.37604749 C1191.12301081 344.37604749 1189.80301081 344.37604749 1188.44301081 344.37604749 C1188.44301081 345.03604749 1188.44301081 345.69604749 1188.44301081 346.37604749 C1184.21351085 348.79290461 1181.3196509 349.72437893 1176.44301081 349.37604749 C1176.44301081 350.03604749 1176.44301081 350.69604749 1176.44301081 351.37604749 C1164.69573444 354.30201862 1153.60581457 354.80103072 1141.54869127 354.7507776 C1139.56025508 354.75360821 1137.57182041 354.75775317 1135.58338934 354.76308283 C1130.13221444 354.77390273 1124.68120263 354.76612887 1119.23003375 354.75524879 C1113.29465309 354.74672043 1107.35929404 354.75563775 1101.42391455 354.76231295 C1091.02564908 354.77160291 1080.62742206 354.76985509 1070.22915888 354.76058042 C1059.07654433 354.7506862 1047.92395629 354.74735141 1036.77133799 354.7519573 C1036.06590236 354.75224433 1035.36046673 354.75253137 1034.63365426 354.75282711 C1031.7603446 354.75401861 1028.88703497 354.75525776 1026.01372536 354.75655702 C999.27498656 354.76864616 972.53626792 354.76612865 945.7975297 354.75436819 C920.03144735 354.74305237 894.26537398 354.7370808 868.49928904 354.73855627 C866.8806306 354.73864167 865.26197216 354.73872655 863.64331372 354.7388109 C857.13850458 354.73915875 850.63369545 354.73954384 844.12888633 354.73997648 C825.94581435 354.74117106 807.76274243 354.74135301 789.57967043 354.74077356 C788.75168595 354.74074753 787.92370146 354.74072151 787.07062654 354.74069469 C760.69083109 354.73979614 734.31103845 354.73449895 707.93124437 354.72606599 C706.64799042 354.72565621 706.64799042 354.72565621 705.33881215 354.72523815 C691.44626361 354.72078455 677.55371516 354.71606974 663.66116671 354.71133926 C608.55768275 354.69259281 553.45421251 354.68617574 498.35072565 354.69172132 C494.86825112 354.69206831 491.38577659 354.69241392 487.90330206 354.69275961 C487.04226995 354.69284521 486.18123784 354.69293082 485.29411384 354.69301902 C475.75837261 354.69396515 466.22263137 354.69487687 456.68689013 354.69574678 C455.8317491 354.6958257 454.97660807 354.69590462 454.09555367 354.69598593 C407.92912445 354.70020845 361.76269676 354.6949033 315.5962683 354.68623549 C313.96868576 354.6859322 312.34110322 354.68562931 310.71352068 354.68532679 C309.90896389 354.6851772 309.10440709 354.68502761 308.27546979 354.68487348 C306.6523051 354.68457206 305.0291404 354.68427107 303.40597571 354.68397052 C299.36225562 354.68322167 295.31853552 354.68246567 291.27481544 354.68169435 C273.55022586 354.67834612 255.82563741 354.67627674 238.10104752 354.67763007 C237.30246474 354.67769061 236.50388197 354.67775115 235.68109971 354.67781352 C231.66040353 354.67812549 227.63970735 354.67845891 223.61901116 354.67879984 C194.55973928 354.6812507 165.50048074 354.67719199 136.44121252 354.66158984 C133.5781022 354.66007991 130.71499186 354.65859988 127.8518815 354.657143 C127.14922898 354.65678226 126.44657645 354.65642152 125.72263142 354.65604985 C114.59952465 354.6505147 103.47642905 354.65164786 92.35332201 354.65554783 C81.41451429 354.65923849 70.47572591 354.6555958 59.53692251 354.64468362 C53.68626589 354.63904702 47.83565474 354.63656738 41.98499773 354.6428502 C36.66117789 354.64849844 31.33744632 354.64492977 26.01363532 354.63405142 C24.10105478 354.63174669 22.18846653 354.6327745 20.27589063 354.63757397 C-4.91704938 354.6960174 -4.91704938 354.6960174 -11.55698919 351.37604749 C-11.55698919 350.71604749 -11.55698919 350.05604749 -11.55698919 349.37604749 C-12.34073919 349.47917249 -13.12448919 349.58229749 -13.93198919 349.68854749 C-19.12329278 349.24102132 -23.04831184 346.87096777 -27.55698919 344.37604749 C-27.55698919 343.71604749 -27.55698919 343.05604749 -27.55698919 342.37604749 C-28.09323919 342.12854749 -28.62948919 341.88104749 -29.18198919 341.62604749 C-36.34586318 337.8555875 -41.06738219 333.20161752 -45.55698919 326.37604749 C-45.55698919 325.38604749 -45.55698919 324.39604749 -45.55698919 323.37604749 C-46.21698919 323.37604749 -46.87698919 323.37604749 -47.55698919 323.37604749 C-50.09631199 319.95772834 -50.92060899 317.61827851 -50.55698919 313.37604749 C-51.21698919 313.37604749 -51.87698919 313.37604749 -52.55698919 313.37604749 C-54.62624583 307.4097728 -54.84419924 302.02175993 -54.82441473 295.73768079 C-54.82894584 294.67773743 -54.83347696 293.61779407 -54.83814538 292.52573121 C-54.85078848 288.98002387 -54.84916903 285.43447016 -54.84751654 281.8887428 C-54.85350185 279.3440122 -54.8603074 276.79928341 -54.86787176 274.25455701 C-54.88370442 268.06282236 -54.88998017 261.87114381 -54.89109652 255.67939082 C-54.89204825 250.6438913 -54.89616479 245.60840431 -54.90249777 240.57290876 C-54.92010368 226.28222435 -54.92933772 211.99156993 -54.92783682 197.7008746 C-54.92775691 196.93110353 -54.927677 196.16133246 -54.92759466 195.36823499 C-54.9275129 194.59751908 -54.92743114 193.82680316 -54.9273469 193.03273222 C-54.92653431 180.54722747 -54.94566692 168.06184345 -54.97387139 155.57637361 C-55.00263299 142.74253945 -55.01640987 129.90876412 -55.01468384 117.07489693 C-55.01402104 109.87523314 -55.01946478 102.6756959 -55.04103994 95.47606122 C-55.061208 88.7027979 -55.06054466 81.92984558 -55.04600668 75.15655363 C-55.04391782 72.6746008 -55.04862401 70.19263126 -55.0607276 67.71070707 C-55.07621443 64.31427579 -55.06684814 60.91876098 -55.05146551 57.52234876 C-55.06175264 56.5475183 -55.07203976 55.57268784 -55.08263862 54.56831706 C-54.9791552 44.18050203 -51.28683326 35.87496119 -45.55698919 27.37604749 C-45.22698919 26.71604749 -44.89698919 26.05604749 -44.55698919 25.37604749 C-43.89698919 25.37604749 -43.23698919 25.37604749 -42.55698919 25.37604749 C-42.28886419 24.57167249 -42.02073919 23.76729749 -41.74448919 22.93854749 C-41.35261419 22.09292249 -40.96073919 21.24729749 -40.55698919 20.37604749 C-39.56698919 20.04604749 -38.57698919 19.71604749 -37.55698919 19.37604749 C-37.55698919 18.71604749 -37.55698919 18.05604749 -37.55698919 17.37604749 C-36.89698919 17.37604749 -36.23698919 17.37604749 -35.55698919 17.37604749 C-35.55698919 16.71604749 -35.55698919 16.05604749 -35.55698919 15.37604749 C-34.56698919 15.37604749 -33.57698919 15.37604749 -32.55698919 15.37604749 C-32.22698919 14.38604749 -31.89698919 13.39604749 -31.55698919 12.37604749 C-30.89698919 12.37604749 -30.23698919 12.37604749 -29.55698919 12.37604749 C-29.55698919 11.71604749 -29.55698919 11.05604749 -29.55698919 10.37604749 C-27.76662461 9.36693291 -25.97626003 8.35781833 -24.18589544 7.34870374 C-22.57820773 6.47879619 -22.57820773 6.47879619 -21.55698919 5.37604749 C-19.89081804 5.33540917 -18.22310824 5.33332649 -16.55698919 5.37604749 C-16.55698919 4.71604749 -16.55698919 4.05604749 -16.55698919 3.37604749 C-10.78730874 0.91761937 -6.23825557 -0.05906075 0 0 Z M1.44301081 12.37604749 C0.03031126 12.52462451 -1.38749054 12.63545601 -2.80698919 12.68854749 C-8.58572891 13.20753621 -13.44130193 15.78473675 -18.55698919 18.37604749 C-18.55698919 19.03604749 -18.55698919 19.69604749 -18.55698919 20.37604749 C-19.15511419 20.49979749 -19.75323919 20.62354749 -20.36948919 20.75104749 C-22.81930268 21.33080735 -22.81930268 21.33080735 -25.55698919 23.37604749 C-25.55698919 24.03604749 -25.55698919 24.69604749 -25.55698919 25.37604749 C-26.54698919 25.70604749 -27.53698919 26.03604749 -28.55698919 26.37604749 C-28.55698919 27.03604749 -28.55698919 27.69604749 -28.55698919 28.37604749 C-29.21698919 28.37604749 -29.87698919 28.37604749 -30.55698919 28.37604749 C-45.40230224 43.57907893 -44.85545916 63.12880358 -44.81577826 82.84479749 C-44.81849177 85.11278366 -44.82205473 87.38076894 -44.82639837 89.64875257 C-44.83548166 95.78090568 -44.83199489 101.91299116 -44.8256402 108.04514539 C-44.82055915 114.4777135 -44.8252775 120.91027602 -44.82841253 127.34284437 C-44.83227845 138.8337847 -44.8260825 150.32469061 -44.81589386 161.81562555 C-44.80695959 172.21338552 -44.80851202 182.61110082 -44.81773138 193.00885999 C-44.82845831 205.11237778 -44.83240574 217.21586055 -44.82650685 229.31938398 C-44.82339679 235.7158055 -44.82295128 242.11219633 -44.82957983 248.50861585 C-44.83537814 254.52348856 -44.83131099 260.53827731 -44.81979132 266.553141 C-44.81715801 268.75408766 -44.81788697 270.95504145 -44.82231665 273.15598524 C-44.85991672 293.74400446 -43.73997889 310.78372143 -28.80698919 326.43854749 C-26.62708857 328.56346451 -26.62708857 328.56346451 -23.55698919 329.37604749 C-23.55698919 330.03604749 -23.55698919 330.69604749 -23.55698919 331.37604749 C-21.16152297 333.1076167 -21.16152297 333.1076167 -18.11948919 334.81354749 C-17.11015326 335.41038343 -16.10081732 336.00721937 -15.06089544 336.62214124 C-8.06727051 340.12285205 -1.75904491 341.82694538 6.05136484 341.75324565 C6.87410527 341.75757683 7.69684571 341.76190802 8.54451767 341.76637045 C11.29479212 341.77720601 14.04456172 341.76675254 16.79483175 341.75636423 C18.79764832 341.75979821 20.800463 341.76454532 22.80327371 341.77048519 C28.322322 341.78302217 33.8412162 341.7768325 39.36026528 341.76765152 C45.35875633 341.76095599 51.35722043 341.77160065 57.3557058 341.78004736 C67.87398588 341.79243814 78.39222764 341.79371851 88.91050959 341.78749692 C100.19626085 341.78086945 111.48198418 341.78074385 122.767735 341.78854406 C123.83706132 341.78927606 123.83706132 341.78927606 124.92799018 341.79002284 C127.83146985 341.79203103 130.73494948 341.79408413 133.63842908 341.79619458 C163.11374794 341.81759674 192.58904614 341.81964882 222.06437082 341.81413754 C226.13734011 341.81338184 230.2103094 341.81265422 234.2832787 341.81195557 C235.09225887 341.81181648 235.90123904 341.81167739 236.73473375 341.81153408 C254.65997397 341.80858226 272.5852117 341.8115941 290.51045146 341.81585186 C292.96344292 341.81643402 295.41643437 341.81700286 297.86942582 341.81756749 C304.44497994 341.81908243 311.02053406 341.82060934 317.59608817 341.8221605 C363.50114016 341.83291787 409.40618984 341.83761834 455.31124258 341.82969034 C456.60931325 341.82946788 456.60931325 341.82946788 457.93360757 341.82924093 C467.58363957 341.82758191 477.23367155 341.82583233 486.88370352 341.82404792 C487.75496875 341.82388689 488.62623398 341.82372587 489.52390118 341.82355996 C494.80910451 341.82258249 494.80910451 341.82258249 500.09430784 341.82159877 C555.83124094 341.81120602 611.56814247 341.81897591 667.30507135 341.84260023 C681.35032601 341.84854354 695.39558067 341.85443506 709.44083548 341.86000955 C710.30563469 341.86035332 711.1704339 341.86069709 712.06143915 341.86105128 C738.71004846 341.87157701 765.35865513 341.87717259 792.00726652 341.8775667 C793.26202094 341.87758587 793.26202094 341.87758587 794.54212394 341.87760543 C812.90421082 341.87783371 831.26629748 341.87682773 849.62838423 341.87469638 C856.19840563 341.8739416 862.76842703 341.87326339 869.33844844 341.87261622 C870.97292377 341.87245353 872.6073991 341.87228587 874.24187442 341.87211321 C900.29631549 341.86939091 926.35073741 341.877951 952.40517436 341.89196731 C979.37088599 341.9063675 1006.33656116 341.90593443 1033.30227154 341.88859259 C1036.19714284 341.88678838 1039.09201418 341.88504819 1041.98688555 341.88335836 C1043.05257223 341.88272761 1043.05257223 341.88272761 1044.13978793 341.88208411 C1055.39539068 341.87578303 1066.65094339 341.88289542 1077.90653909 341.89556756 C1088.97054292 341.90774141 1100.03448221 341.90532234 1111.09848415 341.88834725 C1117.01843466 341.87967369 1122.93820143 341.87739236 1128.85814285 341.89261656 C1134.24144452 341.90633056 1139.62440404 341.9017082 1145.00768547 341.88233138 C1146.94514463 341.87858923 1148.88263118 341.88157536 1150.82006567 341.89204446 C1164.61706252 342.05508049 1164.61706252 342.05508049 1177.44301081 337.37604749 C1178.55933893 336.81401624 1179.67566706 336.25198499 1180.82582331 335.67292249 C1181.73074518 335.16245374 1182.63566706 334.65198499 1183.56801081 334.12604749 C1184.49871393 333.60526624 1185.42941706 333.08448499 1186.38832331 332.54792249 C1187.06637018 332.16120374 1187.74441706 331.77448499 1188.44301081 331.37604749 C1188.44301081 330.71604749 1188.44301081 330.05604749 1188.44301081 329.37604749 C1189.43301081 329.04604749 1190.42301081 328.71604749 1191.44301081 328.37604749 C1191.44301081 327.71604749 1191.44301081 327.05604749 1191.44301081 326.37604749 C1192.08238581 326.10792249 1192.72176081 325.83979749 1193.38051081 325.56354749 C1195.77432767 324.48936997 1195.77432767 324.48936997 1196.44301081 321.37604749 C1197.10301081 321.37604749 1197.76301081 321.37604749 1198.44301081 321.37604749 C1200.17245402 318.94478917 1200.17245402 318.94478917 1201.88051081 315.87604749 C1202.47734674 314.85510999 1203.07418268 313.83417249 1203.68910456 312.78229749 C1207.59315086 305.20027438 1208.88520885 299.44633246 1208.83741999 291.00379407 C1208.84351109 289.98453737 1208.84960219 288.96528068 1208.85587788 287.91513741 C1208.87247514 284.51299551 1208.8677366 281.11122924 1208.86293268 277.7090553 C1208.87027496 275.2643187 1208.87886165 272.81958555 1208.88859797 270.37485731 C1208.90850233 264.43090173 1208.91419536 258.48703711 1208.91241008 252.54305783 C1208.91109999 247.70828991 1208.91491917 242.87355232 1208.92233515 238.03879011 C1208.92443446 236.643575 1208.92653206 235.24835988 1208.92862797 233.85314476 C1208.9296715 233.15859235 1208.93071502 232.46403993 1208.93179017 231.74844047 C1208.95067502 218.62488384 1208.94964797 205.50138315 1208.94282085 192.37781855 C1208.93724876 180.39093938 1208.95805956 168.40427416 1208.99118131 156.41744497 C1209.02497554 144.09094011 1209.04007939 131.76453756 1209.03546429 119.43798554 C1209.0332251 112.52500016 1209.03838138 105.61221243 1209.06335688 98.69926679 C1209.08665617 92.19518936 1209.08371769 85.69144353 1209.06342936 79.18735349 C1209.06002508 76.80579886 1209.06508307 74.42421413 1209.07941294 72.04270017 C1209.41728283 55.01962529 1209.41728283 55.01962529 1203.44301081 39.37604749 C1202.88857168 38.42734218 1202.88857168 38.42734218 1202.32293177 37.45947111 C1201.37887841 35.96256686 1200.3226279 34.53786199 1199.25551081 33.12604749 C1198.58133112 32.21339124 1197.90715143 31.30073499 1197.21254206 30.36042249 C1196.62859674 29.70557874 1196.04465143 29.05073499 1195.44301081 28.37604749 C1194.78301081 28.37604749 1194.12301081 28.37604749 1193.44301081 28.37604749 C1193.44301081 27.71604749 1193.44301081 27.05604749 1193.44301081 26.37604749 C1191.37071556 24.43409489 1191.37071556 24.43409489 1188.75551081 22.43854749 C1187.88539362 21.74889905 1187.01527643 21.05925062 1186.11879206 20.34870374 C1179.42840485 15.41637449 1173.43711035 13.35721541 1165.19301081 12.31354749 C1158.64697681 11.47803049 1158.64697681 11.47803049 1156.44301081 10.37604749 C1153.90018403 10.27824725 1151.3847718 10.2418517 1148.84165889 10.24954766 C1148.04276977 10.24802111 1147.24388064 10.24649456 1146.42078276 10.24492176 C1143.70974606 10.24098564 1140.99876396 10.24425227 1138.28772688 10.24741304 C1136.3296826 10.24606802 1134.37163858 10.24428507 1132.41359505 10.24210081 C1126.98628416 10.23734067 1121.5589899 10.23888213 1116.13167816 10.24137858 C1110.24480445 10.24300322 1104.35793444 10.23887789 1098.47106189 10.2354694 C1088.13798528 10.23030027 1077.80491224 10.22886615 1067.47183466 10.22992551 C1056.37988581 10.23104837 1045.28794033 10.23002146 1034.19599199 10.22635305 C1033.49642589 10.2261234 1032.79685978 10.22589374 1032.0760947 10.22565713 C1029.22704364 10.22471553 1026.37799258 10.22375985 1023.52894153 10.22278594 C993.77605526 10.21263017 964.02317088 10.20957953 934.27028308 10.20899383 C931.06557066 10.20892908 927.86085823 10.20886115 924.65614581 10.20879042 C923.86092754 10.20877342 923.06570928 10.20875641 922.24639349 10.20873889 C904.63964382 10.20833077 887.03289451 10.20614194 869.42614503 10.20363458 C862.18066124 10.20260624 854.93517743 10.20161623 847.68969363 10.20061833 C846.48891259 10.20045244 846.48891259 10.20045244 845.26387336 10.20028321 C799.37578019 10.1939571 753.48768726 10.18983431 707.59959364 10.19029176 C705.88149766 10.19030754 704.16340169 10.19032328 702.44530571 10.19033897 C694.68790942 10.19041236 686.93051313 10.19050053 679.17311685 10.19059286 C675.71376155 10.19063398 672.25440625 10.19067413 668.79505095 10.19071417 C667.0635789 10.19073456 665.33210684 10.19075558 663.60063478 10.19077723 C608.8470002 10.19145751 554.09337209 10.18414042 499.33973932 10.17023695 C485.54520816 10.16673605 471.75067698 10.16326664 457.95614576 10.15997255 C456.68214512 10.15966824 456.68214512 10.15966824 455.38240709 10.15935778 C429.2132198 10.15314466 403.04403303 10.14937758 376.87484503 10.14811456 C376.05346218 10.14807461 375.23207933 10.14803466 374.3858061 10.1479935 C356.35605787 10.1471403 338.32630967 10.146879 320.29656143 10.14716388 C313.84543285 10.14726036 307.39430428 10.1473124 300.94317571 10.1473426 C299.33823554 10.14735052 297.73329538 10.14736072 296.12835521 10.14737323 C270.53398874 10.1475497 244.9396278 10.14184567 219.34526292 10.13321941 C193.57160432 10.12457688 167.79795338 10.12237183 142.02429394 10.12898073 C138.46520761 10.12989308 134.90612128 10.13073634 131.34703493 10.13153875 C130.30048488 10.13177888 130.30048488 10.13177888 129.23279241 10.13202386 C118.17129685 10.13437977 107.10981452 10.13001261 96.04832145 10.12286756 C85.17965564 10.11598705 74.31100708 10.11637694 63.4423413 10.1240597 C57.62486894 10.12796544 51.80744369 10.12864777 45.98997454 10.12060235 C40.70313243 10.11335443 35.41637689 10.1152233 30.12953871 10.12452621 C28.22358328 10.12625502 26.31762118 10.12459496 24.41167253 10.11922501 C21.83137842 10.11243901 19.25139066 10.11791789 16.67110854 10.12649983 C15.93208419 10.12160021 15.19305983 10.11670059 14.4316408 10.1116525 C9.78360323 10.14397154 5.85833921 10.96519621 1.44301081 12.37604749 Z " fill="#FBFBFB" transform="translate(57.55698919296265,23.623952507972717)"/>
<path d="M0 0 C1.21150726 -0.00637985 2.42301453 -0.0127597 3.67123413 -0.01933289 C4.99096222 -0.02044571 6.31069031 -0.02155853 7.67041016 -0.02270508 C9.02942948 -0.02591639 10.38844846 -0.02928037 11.74746704 -0.03279114 C14.60069581 -0.03878917 17.45389427 -0.0406304 20.30712891 -0.04003906 C23.9647173 -0.03993752 27.62211123 -0.05357873 31.27965355 -0.07081127 C34.08833714 -0.08192735 36.8969737 -0.08395838 39.70567703 -0.08342934 C41.71040533 -0.08518537 43.71511895 -0.09603081 45.71981812 -0.10697937 C46.9376297 -0.10390274 48.15544128 -0.10082611 49.41015625 -0.09765625 C51.02112686 -0.09979378 51.02112686 -0.09979378 52.66464233 -0.10197449 C55.33447266 0.14526367 55.33447266 0.14526367 58.33447266 2.14526367 C59.84087446 2.70647219 61.36354994 3.22525339 62.89697266 3.70776367 C65.14896609 4.4214496 67.2209197 5.08848719 69.33447266 6.14526367 C69.33447266 6.80526367 69.33447266 7.46526367 69.33447266 8.14526367 C70.32447266 8.14526367 71.31447266 8.14526367 72.33447266 8.14526367 C72.33447266 8.80526367 72.33447266 9.46526367 72.33447266 10.14526367 C73.22972656 10.5397168 73.22972656 10.5397168 74.14306641 10.94213867 C80.40470081 14.37989874 84.1592915 21.29872166 86.17822266 27.90698242 C87.78231503 33.82578622 88.74934687 39.02586907 88.33447266 45.14526367 C88.27259766 46.21776367 88.21072266 47.29026367 88.14697266 48.39526367 C86.944711 53.94416362 84.63668396 58.97165967 82.33447266 64.14526367 C81.67447266 64.14526367 81.01447266 64.14526367 80.33447266 64.14526367 C80.10759766 64.70213867 79.88072266 65.25901367 79.64697266 65.83276367 C76.76175753 70.91623795 72.27595785 74.18037256 67.33447266 77.14526367 C66.67447266 77.14526367 66.01447266 77.14526367 65.33447266 77.14526367 C65.77017578 77.88389648 66.20587891 78.6225293 66.65478516 79.38354492 C71.21223628 87.14699521 75.56632975 94.99926432 79.83056641 102.92651367 C80.575 104.30323242 80.575 104.30323242 81.33447266 105.70776367 C82.0634375 107.05741211 82.0634375 107.05741211 82.80712891 108.43432617 C84.83572014 112.0349459 87.06083595 115.50090908 89.33056641 118.95385742 C90.33447266 121.14526367 90.33447266 121.14526367 89.99462891 123.43041992 C89.77677734 123.99631836 89.55892578 124.5622168 89.33447266 125.14526367 C86.10824258 126.10305073 83.19354475 126.27412565 79.83447266 126.27807617 C78.25666016 126.28000977 78.25666016 126.28000977 76.64697266 126.28198242 C75.55384766 126.27811523 74.46072266 126.27424805 73.33447266 126.27026367 C72.24134766 126.27413086 71.14822266 126.27799805 70.02197266 126.28198242 C68.97009766 126.28069336 67.91822266 126.2794043 66.83447266 126.27807617 C65.39587891 126.27638428 65.39587891 126.27638428 63.92822266 126.2746582 C61.53227921 126.15513166 59.57959237 125.98476761 57.33447266 125.14526367 C55.70166016 122.49291992 55.70166016 122.49291992 54.20947266 119.20776367 C52.27448907 114.82806727 52.27448907 114.82806727 49.33447266 111.14526367 C49.33447266 109.82526367 49.33447266 108.50526367 49.33447266 107.14526367 C48.67447266 107.14526367 48.01447266 107.14526367 47.33447266 107.14526367 C47.03154297 106.52780273 46.72861328 105.9103418 46.41650391 105.27416992 C43.88173422 100.15003551 41.29647668 95.07483484 38.43212891 90.12573242 C37.33447266 88.14526367 37.33447266 88.14526367 36.14697266 85.14526367 C33.65730949 81.94888768 33.65730949 81.94888768 24.33447266 82.14526367 C24.33447266 96.00526367 24.33447266 109.86526367 24.33447266 124.14526367 C20.02347944 125.86966096 18.27993566 126.39523898 13.92041016 126.37573242 C12.91236328 126.37379883 11.90431641 126.37186523 10.86572266 126.36987305 C9.82416016 126.35762695 8.78259766 126.34538086 7.70947266 126.33276367 C6.66017578 126.33211914 5.61087891 126.33147461 4.52978516 126.33081055 C-3.24342301 126.28596512 -3.24342301 126.28596512 -6.66552734 125.14526367 C-6.68885644 108.99494447 -6.70650657 92.84463071 -6.71733952 76.69429874 C-6.72250245 69.19593303 -6.7295451 61.69757776 -6.7409668 54.19921875 C-6.75091371 47.66595863 -6.75738079 41.13270608 -6.75961584 34.59943861 C-6.76092293 31.1380456 -6.76400871 27.67667425 -6.7712574 24.21528816 C-6.77927141 20.35738841 -6.77951848 16.4995101 -6.77905273 12.64160156 C-6.78264801 11.48570526 -6.78624329 10.32980896 -6.78994751 9.1388855 C-6.78857285 8.09415573 -6.78719818 7.04942596 -6.78578186 5.97303772 C-6.78670365 5.05954087 -6.78762545 4.14604403 -6.78857517 3.20486546 C-6.53493674 -1.04059079 -3.60524363 0.01281481 0 0 Z M24.33447266 28.14526367 C24.33447266 37.38526367 24.33447266 46.62526367 24.33447266 56.14526367 C29.31541016 56.23807617 29.31541016 56.23807617 34.39697266 56.33276367 C35.42959229 56.36007568 36.46221191 56.3873877 37.52612305 56.41552734 C43.26730735 56.4670302 47.24329622 55.83560794 52.33447266 53.14526367 C52.33447266 52.48526367 52.33447266 51.82526367 52.33447266 51.14526367 C52.99447266 51.14526367 53.65447266 51.14526367 54.33447266 51.14526367 C57.11192192 47.72686458 57.93647302 44.61627206 57.74462891 40.20385742 C57.00249745 36.47906432 55.18723024 33.62183344 52.33447266 31.14526367 C46.35919546 27.78417025 41.14238216 27.77935267 34.39697266 27.95776367 C31.07634766 28.01963867 27.75572266 28.08151367 24.33447266 28.14526367 Z " fill="#FDFDFD" transform="translate(910.66552734375,155.854736328125)"/>
<path d="M0 0 C1.0041243 -0.00418442 1.0041243 -0.00418442 2.02853394 -0.00845337 C12.7590082 -0.00120751 20.60943617 1.21886806 29.375 7.625 C30.78072266 8.41970703 30.78072266 8.41970703 32.21484375 9.23046875 C32.92769531 9.69066406 33.64054687 10.15085938 34.375 10.625 C34.375 11.285 34.375 11.945 34.375 12.625 C35.365 12.955 36.355 13.285 37.375 13.625 C38.5625 16.1875 38.5625 16.1875 39.375 18.625 C40.035 18.625 40.695 18.625 41.375 18.625 C47.92161017 34.70550847 47.92161017 34.70550847 47.375 39.625 C43.98834784 43.01165216 39.25345451 41.92834196 34.68164062 41.94726562 C33.98530518 41.94509033 33.28896973 41.94291504 32.5715332 41.94067383 C30.44885794 41.93751689 28.32758064 41.96095761 26.20507812 41.98632812 C24.85677259 41.98860146 23.50846331 41.98930446 22.16015625 41.98828125 C20.93176025 41.99126221 19.70336426 41.99424316 18.43774414 41.99731445 C15.375 41.625 15.375 41.625 13.54858398 40.32495117 C11.69583864 37.64122623 10.62929569 34.62440274 9.375 31.625 C6.69863747 28.94863747 4.04193445 28.13501377 0.375 27.625 C-3.32272751 27.7492516 -6.95920797 28.13446002 -10.625 28.625 C-11.97633698 31.76163989 -12.90438124 34.53891556 -13.25 37.9375 C-13.435625 39.7628125 -13.435625 39.7628125 -13.625 41.625 C-12.965 41.625 -12.305 41.625 -11.625 41.625 C-11.17125 42.24375 -10.7175 42.8625 -10.25 43.5 C-6.06472171 48.97305622 1.96919276 49.37003434 8.375 50.5625 C12.95493765 51.46312798 17.06391983 52.86954122 21.375 54.625 C22.179375 54.91246094 22.98375 55.19992188 23.8125 55.49609375 C30.98734473 58.13197421 37.25716495 61.84982834 42.375 67.625 C42.375 68.285 42.375 68.945 42.375 69.625 C43.035 69.625 43.695 69.625 44.375 69.625 C49.7061655 78.99753289 49.53403195 92.17995355 47.375 102.625 C45.53777247 107.49764692 43.43868245 112.22411068 39.375 115.625 C38.715 115.625 38.055 115.625 37.375 115.625 C37.375 116.285 37.375 116.945 37.375 117.625 C36.715 117.625 36.055 117.625 35.375 117.625 C34.88 119.11 34.88 119.11 34.375 120.625 C22.6127772 129.56428933 8.77689091 132.13531066 -5.625 130.625 C-17.90127427 128.66527549 -30.91496354 123.66092628 -38.9296875 113.78515625 C-44.86884175 105.15924174 -49.16160735 97.3612955 -47.625 86.625 C-44.2308944 83.2308944 -39.46509201 84.32164164 -34.8828125 84.30273438 C-34.18446289 84.30490967 -33.48611328 84.30708496 -32.76660156 84.30932617 C-30.63294515 84.31248823 -28.50067256 84.28902362 -26.3671875 84.26367188 C-25.01562675 84.26139912 -23.66406227 84.26069528 -22.3125 84.26171875 C-21.07886719 84.25873779 -19.84523438 84.25575684 -18.57421875 84.25268555 C-17.60097656 84.37554932 -16.62773438 84.49841309 -15.625 84.625 C-13.42818988 87.92021518 -12.52543997 90.90504402 -11.40625 94.6640625 C-10.80173144 96.81388035 -10.80173144 96.81388035 -8.625 97.625 C-8.625 98.285 -8.625 98.945 -8.625 99.625 C-0.99666657 101.41827911 4.57522943 102.34919411 11.6875 98.3125 C13.81707289 96.18292711 14.61221027 94.53746987 15.375 91.625 C15.28041544 87.84161747 14.46390578 86.72279636 11.875 83.875 C11.05 83.1325 10.225 82.39 9.375 81.625 C9.045 81.295 8.715 80.965 8.375 80.625 C6.76625 80.4084375 6.76625 80.4084375 5.125 80.1875 C1.375 79.625 1.375 79.625 -0.875 78.703125 C-3.64510468 77.61711805 -6.3975663 76.93235214 -9.296875 76.28149414 C-16.46962704 74.66273748 -22.4165929 72.66855172 -28.625 68.625 C-29.31980469 68.25761719 -30.01460937 67.89023438 -30.73046875 67.51171875 C-37.73254144 63.68882353 -42.32802125 57.25055558 -44.625 49.625 C-45.98895224 37.34413291 -45.96606943 25.98115152 -38.625 15.625 C-37.965 15.625 -37.305 15.625 -36.625 15.625 C-36.356875 14.985625 -36.08875 14.34625 -35.8125 13.6875 C-34.625 11.625 -34.625 11.625 -31.625 10.625 C-31.295 9.635 -30.965 8.645 -30.625 7.625 C-29.05859375 6.5625 -29.05859375 6.5625 -27.0625 5.625 C-26.10150391 5.1609375 -26.10150391 5.1609375 -25.12109375 4.6875 C-24.29738281 4.336875 -23.47367188 3.98625 -22.625 3.625 C-21.51511719 3.10164062 -20.40523437 2.57828125 -19.26171875 2.0390625 C-13.06022102 -0.24171616 -6.52884175 0.00844715 0 0 Z " fill="#FDFDFD" transform="translate(1055.625,153.375)"/>
<path d="M0 0 C1.18682625 0.00539291 1.18682625 0.00539291 2.39762878 0.01089478 C3.22682831 0.01074875 4.05602783 0.01060272 4.91035461 0.01045227 C7.664521 0.01115166 10.41862063 0.01894523 13.17277527 0.02676392 C15.07706668 0.028628 16.98135857 0.03005195 18.88565063 0.03105164 C23.90804865 0.03487754 28.93041794 0.04470843 33.95280457 0.05575562 C39.07365022 0.06596819 44.1945005 0.07054892 49.31535339 0.07559204 C59.37070459 0.08633064 69.42603442 0.10340792 79.48136902 0.12442017 C81.41356462 3.98881136 80.70976479 8.74878805 80.73136902 12.99942017 C80.75199402 14.00617798 80.77261902 15.01293579 80.79386902 16.05020142 C80.80160339 17.50619751 80.80160339 17.50619751 80.80949402 18.99160767 C80.81883972 19.8796106 80.82818542 20.76761353 80.83781433 21.68252563 C80.39609096 24.70863327 79.59471937 25.92588624 77.48136902 28.12442017 C75.10852051 28.60543823 75.10852051 28.60543823 72.27555847 28.57852173 C71.21468521 28.5782196 70.15381195 28.57791748 69.06079102 28.5776062 C67.91696457 28.55696106 66.77313812 28.53631592 65.59465027 28.51504517 C64.42250473 28.50938538 63.25035919 28.50372559 62.04269409 28.49789429 C58.29267324 28.47547338 54.54360191 28.425264 50.79386902 28.37442017 C48.25416926 28.35436267 45.71445455 28.3361106 43.17472839 28.31973267 C36.9432418 28.27558947 30.71246648 28.20652047 24.48136902 28.12442017 C24.48136902 35.05442017 24.48136902 41.98442017 24.48136902 49.12442017 C27.61121277 49.06641235 30.74105652 49.00840454 33.96574402 48.94863892 C36.99729376 48.90964455 40.02881557 48.87928494 43.06047058 48.84976196 C45.16736863 48.82461805 47.27417945 48.79049809 49.38078308 48.7472229 C52.40932221 48.68656649 55.43670832 48.65820934 58.46574402 48.63613892 C59.87844574 48.59742928 59.87844574 48.59742928 61.31968689 48.55793762 C67.8312404 48.55514511 67.8312404 48.55514511 71.07853699 51.39859009 C72.40720299 53.98030883 72.97746838 55.37235647 72.94230652 58.22598267 C72.93843933 58.96332642 72.93457214 59.70067017 72.93058777 60.46035767 C72.90609558 61.21574829 72.88160339 61.97113892 72.85636902 62.74942017 C72.85507996 63.51254517 72.85379089 64.27567017 72.85246277 65.06192017 C72.79174177 68.90758348 72.65620485 70.86216642 70.48136902 74.12442017 C67.70074927 75.05129341 66.06085043 75.24635413 63.19352722 75.23794556 C62.33286148 75.23787003 61.47219574 75.23779449 60.58544922 75.23771667 C59.66036057 75.23255539 58.73527191 75.2273941 57.78215027 75.22207642 C56.83196518 75.22066147 55.88178009 75.21924652 54.90280151 75.2177887 C51.86645873 75.21218892 48.83018954 75.19963648 45.79386902 75.18692017 C43.73592737 75.18190514 41.67798458 75.17734223 39.62004089 75.17324829 C34.57376573 75.16307025 29.52764981 75.14349473 24.48136902 75.12442017 C24.48136902 82.38442017 24.48136902 89.64442017 24.48136902 97.12442017 C26.1067157 97.13900269 27.73206238 97.15358521 29.40666199 97.16860962 C35.41893365 97.2264443 41.43082492 97.30367777 47.4427948 97.38687134 C50.0482009 97.42019063 52.6536804 97.44820043 55.25920105 97.47085571 C58.99763875 97.50427271 62.73539942 97.55658262 66.47355652 97.61270142 C67.64441803 97.61909134 68.81527954 97.62548126 70.0216217 97.63206482 C71.64307602 97.66175606 71.64307602 97.66175606 73.29728699 97.69204712 C74.25214996 97.70315018 75.20701294 97.71425323 76.19081116 97.72569275 C76.94669525 97.8572728 77.70257935 97.98885284 78.48136902 98.12442017 C80.66612224 101.40154999 80.72930152 102.363094 80.71183777 106.15957642 C80.70990417 107.13346313 80.70797058 108.10734985 80.70597839 109.11074829 C80.6937323 110.12588501 80.68148621 111.14102173 80.66886902 112.18692017 C80.66790222 113.71542603 80.66790222 113.71542603 80.66691589 115.27481079 C80.62177395 122.84361031 80.62177395 122.84361031 79.48136902 125.12442017 C75.79326034 126.55487137 71.8274125 126.26494516 67.93058777 126.2538147 C66.79818161 126.25644318 66.79818161 126.25644318 65.64289856 126.25912476 C63.15153188 126.26352004 60.6602364 126.26061345 58.16886902 126.25723267 C56.43538906 126.25790637 54.7019092 126.25887696 52.96842957 126.26013184 C49.33699137 126.26160566 45.70557779 126.25946436 42.07414246 126.25479126 C37.42022747 126.24909417 32.76637015 126.25237485 28.11245728 126.25836372 C24.53340724 126.26197783 20.95437088 126.26082683 17.37532043 126.25823593 C15.65931695 126.25756902 13.94331222 126.25838687 12.22731018 126.26071548 C9.82889013 126.26325591 7.43056338 126.25938176 5.03215027 126.2538147 C4.32345795 126.25583893 3.61476563 126.25786316 2.88459778 126.25994873 C-0.42534053 126.2457214 -3.33462348 126.00138331 -6.51863098 125.12442017 C-6.54196007 108.97410096 -6.55961021 92.8237872 -6.57044315 76.67345524 C-6.57560609 69.17508952 -6.58264874 61.67673425 -6.59407043 54.17837524 C-6.60401735 47.64511513 -6.61048443 41.11186258 -6.61271948 34.5785951 C-6.61402657 31.1172021 -6.61711234 27.65583074 -6.62436104 24.19444466 C-6.63237505 20.3365449 -6.63262211 16.4786666 -6.63215637 12.62075806 C-6.63575165 11.46486176 -6.63934692 10.30896545 -6.64305115 9.11804199 C-6.64167648 8.07331223 -6.64030182 7.02858246 -6.6388855 5.95219421 C-6.63980729 5.03869737 -6.64072908 4.12520052 -6.64167881 3.18402195 C-6.38839762 -1.0554547 -3.58949134 0.00688599 0 0 Z " fill="#FDFDFD" transform="translate(811.5186309814453,155.87557983398438)"/>
<path d="M0 0 C0.77670044 0.00561951 1.55340088 0.01123901 2.3536377 0.01702881 C3.17162338 0.01513046 3.98960907 0.01323212 4.8323822 0.01127625 C7.54390968 0.00756282 10.25517102 0.01827983 12.9666748 0.02947998 C14.84472116 0.03067147 16.72276811 0.03112501 18.60081482 0.03086853 C22.53929365 0.03243432 26.4776817 0.04073193 30.4161377 0.05413818 C35.47621382 0.07113983 40.5361902 0.07495225 45.59629154 0.074193 C49.47461406 0.0744643 53.35291457 0.0799389 57.23122978 0.08719444 C59.09763866 0.0903867 60.96405004 0.09234981 62.8304615 0.09308815 C65.43328264 0.09524518 68.03599582 0.10397514 70.63879395 0.11468506 C71.41751862 0.11423187 72.19624329 0.11377869 72.99856567 0.11331177 C78.31704391 0.14547409 78.31704391 0.14547409 79.43151855 1.25994873 C79.71212571 5.39890431 79.6633185 9.55011096 79.68151855 13.69744873 C79.70214355 14.86856201 79.72276855 16.03967529 79.74401855 17.24627686 C79.75175293 18.92173584 79.75175293 18.92173584 79.75964355 20.63104248 C79.76898926 21.66156738 79.77833496 22.69209229 79.78796387 23.75384521 C79.67033691 24.58085937 79.55270996 25.40787354 79.43151855 26.25994873 C76.10576334 28.47711888 75.09545616 28.50538311 71.22570801 28.48699951 C70.16483475 28.48684845 69.10396149 28.48669739 68.01094055 28.48654175 C66.86711411 28.47621918 65.72328766 28.46589661 64.5447998 28.45526123 C63.37265427 28.45243134 62.20050873 28.44960144 60.99284363 28.44668579 C57.24313213 28.43547626 53.49365806 28.41037002 49.74401855 28.38494873 C47.20430846 28.37491994 44.66459462 28.36579392 42.12487793 28.35760498 C35.89366643 28.33553436 29.66263277 28.30099899 23.43151855 28.25994873 C23.43151855 35.18994873 23.43151855 42.11994873 23.43151855 49.25994873 C28.16108887 49.22514404 28.16108887 49.22514404 32.98620605 49.18963623 C36.03096107 49.17405073 39.07571169 49.16189971 42.1204834 49.15008545 C44.24094625 49.14001122 46.36139516 49.1263514 48.48181152 49.10906982 C51.52497799 49.08488384 54.56796122 49.07348004 57.61120605 49.06463623 C58.56332977 49.05431366 59.51545349 49.04399109 60.49642944 49.03335571 C61.37719147 49.03320465 62.25795349 49.03305359 63.16540527 49.03289795 C63.94261932 49.02845673 64.71983337 49.0240155 65.52059937 49.0194397 C67.43151855 49.25994873 67.43151855 49.25994873 69.43151855 51.25994873 C69.65856934 53.59832764 69.65856934 53.59832764 69.62683105 56.48651123 C69.62038574 57.51776123 69.61394043 58.54901123 69.6072998 59.61151123 C69.58216309 61.23186279 69.58216309 61.23186279 69.55651855 62.88494873 C69.54749512 63.97291748 69.53847168 65.06088623 69.5291748 66.18182373 C69.50555264 68.87475025 69.47261411 71.56724128 69.43151855 74.25994873 C67.10141876 75.42499863 65.75904778 75.38088453 63.16540527 75.37347412 C61.84426224 75.37336082 61.84426224 75.37336082 60.49642944 75.37324524 C59.54430573 75.36808395 58.59218201 75.36292267 57.61120605 75.35760498 C56.63740997 75.35619003 55.66361389 75.35477509 54.66030884 75.35331726 C51.54234782 75.34770846 48.42445796 75.33515447 45.30651855 75.32244873 C43.19584251 75.31743486 41.08516534 75.31287176 38.9744873 75.30877686 C33.79344809 75.29858598 28.6125632 75.27901226 23.43151855 75.25994873 C23.76151855 82.51994873 24.09151855 89.77994873 24.43151855 97.25994873 C26.02657227 97.27976807 27.62162598 97.2995874 29.26501465 97.32000732 C35.1654071 97.39590115 41.06554767 97.48464311 46.96569824 97.57733154 C49.52261392 97.61568853 52.07958481 97.65052935 54.63659668 97.68182373 C58.30541764 97.72732849 61.97385629 97.78534683 65.64245605 97.84588623 C66.79144379 97.85743744 67.94043152 97.86898865 69.12423706 97.88088989 C70.18518585 97.90075958 71.24613464 97.92062927 72.3392334 97.94110107 C73.27633148 97.95442474 74.21342957 97.96774841 75.17892456 97.98147583 C77.43151855 98.25994873 77.43151855 98.25994873 79.43151855 100.25994873 C79.65856934 102.78192139 79.65856934 102.78192139 79.62683105 105.92401123 C79.62038574 107.04549561 79.61394043 108.16697998 79.6072998 109.32244873 C79.58216309 111.08588623 79.58216309 111.08588623 79.55651855 112.88494873 C79.54749512 114.06830811 79.53847168 115.25166748 79.5291748 116.47088623 C79.50554668 119.40077396 79.4726037 122.33026213 79.43151855 125.25994873 C75.5658044 126.51209187 71.69834608 126.40770975 67.68127441 126.4052124 C66.5171981 126.41025032 66.5171981 126.41025032 65.3296051 126.41539001 C62.76850783 126.42487685 60.20747605 126.42684171 57.6463623 126.42791748 C55.86564609 126.43113067 54.08493014 126.43449479 52.30421448 126.43800354 C48.57442614 126.44398843 44.84466096 126.445844 41.11486816 126.44525146 C36.33077724 126.44514966 31.54683412 126.45882399 26.76277828 126.47602367 C23.08683079 126.48712728 19.41091929 126.48917121 15.73495674 126.48864174 C13.97067313 126.48982348 12.20638863 126.4942561 10.44212151 126.50197411 C7.97876394 126.5117448 5.51573068 126.50890807 3.05236816 126.50286865 C2.32137909 126.50848816 1.59039001 126.51410767 0.83724976 126.51989746 C-2.85757904 126.49681708 -4.40763324 126.36718087 -7.56848145 124.25994873 C-7.94321156 122.11412048 -7.94321156 122.11412048 -7.94270325 119.40130615 C-7.94971756 118.37492035 -7.95673187 117.34853455 -7.96395874 116.29104614 C-7.956315 115.16058868 -7.94867126 114.03013123 -7.9407959 112.86541748 C-7.94444656 111.6784024 -7.94809723 110.49138733 -7.95185852 109.2684021 C-7.95858891 106.00802616 -7.95183075 102.74802052 -7.93852639 99.48767471 C-7.9272293 96.07997835 -7.93131805 92.67229711 -7.93327332 89.2645874 C-7.93415685 83.54131158 -7.92306365 77.81815407 -7.90466309 72.09490967 C-7.88349449 65.47268088 -7.8799852 58.85062548 -7.88622504 52.22836971 C-7.89191467 45.86490013 -7.88627781 39.50149176 -7.8750515 33.13803101 C-7.87040016 30.42673615 -7.86953396 27.71547867 -7.87163734 25.00418091 C-7.87200651 21.22084477 -7.85942939 17.43777611 -7.84313965 13.65447998 C-7.84561707 12.52402252 -7.84809448 11.39356506 -7.85064697 10.22885132 C-7.84356216 9.20246552 -7.83647736 8.17607971 -7.82917786 7.11859131 C-7.82609855 5.77574821 -7.82609855 5.77574821 -7.82295704 4.40577698 C-7.25448229 -0.38780322 -4.07325648 0.0241285 0 0 Z " fill="#FDFDFD" transform="translate(1122.5684814453125,155.74005126953125)"/>
<path d="M0 0 C1.20970459 0.00523682 2.41940918 0.01047363 3.66577148 0.01586914 C4.97094727 0.0190918 6.27612305 0.02231445 7.62084961 0.02563477 C9.00952213 0.03399138 10.39819401 0.04245634 11.78686523 0.05102539 C13.17944179 0.05603873 14.57202005 0.06060193 15.96459961 0.06469727 C19.38456394 0.07653105 22.80444367 0.09301659 26.22436523 0.11352539 C28.86642062 4.99304679 30.7682023 9.43554131 31.84936523 14.92602539 C32.60229555 18.70396398 33.06919002 20.88076256 35.22436523 24.11352539 C35.30341587 26.44551927 35.31235292 28.78185161 35.22436523 31.11352539 C35.88436523 31.11352539 36.54436523 31.11352539 37.22436523 31.11352539 C37.71264648 33.13175456 38.20092773 35.14998372 38.68920898 37.16821289 C39.17283516 39.17209109 39.17283516 39.17209109 40.22436523 41.11352539 C40.26435724 43.11312551 40.26783323 45.11399781 40.22436523 47.11352539 C40.88436523 47.11352539 41.54436523 47.11352539 42.22436523 47.11352539 C42.46670898 48.15250977 42.70905273 49.19149414 42.95874023 50.26196289 C44.66698163 57.42247754 46.48414907 64.22052577 49.41577148 70.99633789 C50.54971454 73.96540617 50.8397684 76.97265123 51.22436523 80.11352539 C52.21436523 81.59852539 52.21436523 81.59852539 53.22436523 83.11352539 C53.60936414 84.7690207 53.95229658 86.43576869 54.22436523 88.11352539 C54.50151367 87.11450195 54.77866211 86.11547852 55.06420898 85.08618164 C55.42992073 83.78274748 55.79581561 82.4793647 56.16186523 81.17602539 C56.34426758 80.51666992 56.52666992 79.85731445 56.71459961 79.17797852 C58.11108398 74.22680664 58.11108398 74.22680664 59.22436523 73.11352539 C59.32749023 72.14415039 59.43061523 71.17477539 59.53686523 70.17602539 C60.06706272 66.00285812 61.62607311 62.44997716 63.24780273 58.59399414 C64.11584034 56.38917863 64.75284089 54.29207108 65.28686523 51.98852539 C66.12355297 48.53021609 67.20547007 45.43697014 68.49780273 42.14086914 C69.2629064 40.00598309 69.82266629 37.88108588 70.34936523 35.67602539 C71.22436523 32.11352539 71.22436523 32.11352539 72.22436523 31.11352539 C72.32749023 30.14415039 72.43061523 29.17477539 72.53686523 28.17602539 C72.9438441 24.99771426 73.84923156 22.37310858 75.09936523 19.42602539 C77.15486044 14.57773779 78.38813879 9.71888846 79.51342773 4.58227539 C80.22436523 2.11352539 80.22436523 2.11352539 82.22436523 0.11352539 C85.11352539 -0.11352539 85.11352539 -0.11352539 88.76342773 -0.08178711 C90.71635742 -0.07211914 90.71635742 -0.07211914 92.70874023 -0.06225586 C94.08895119 -0.0455439 95.46915952 -0.028614 96.84936523 -0.01147461 C98.23737976 -0.00144467 99.62540113 0.00768116 101.01342773 0.01586914 C104.4172455 0.03950676 107.8207203 0.07245672 111.22436523 0.11352539 C111.27372025 1.68872564 111.30864663 3.26438146 111.33764648 4.84008789 C111.35867432 5.71745605 111.37970215 6.59482422 111.40136719 7.4987793 C111.16197774 11.03513924 109.88180069 13.55695724 108.30639648 16.67993164 C106.62845497 20.45378567 105.82862621 24.39435098 104.93530273 28.41430664 C104.22436523 31.11352539 104.22436523 31.11352539 103.23217773 33.09399414 C101.93336791 35.69664795 101.37564854 38.28185886 100.72436523 41.11352539 C99.88855611 44.74747813 98.96478649 47.82293135 97.22436523 51.11352539 C96.53963129 53.44162082 95.87583372 55.77590316 95.22436523 58.11352539 C94.73235092 59.61616371 94.23201169 61.1160959 93.72436523 62.61352539 C91.56237216 69.0343189 89.83947464 75.53772279 88.22436523 82.11352539 C87.56436523 82.11352539 86.90436523 82.11352539 86.22436523 82.11352539 C86.26561523 83.04165039 86.30686523 83.96977539 86.34936523 84.92602539 C86.22436523 88.11352539 86.22436523 88.11352539 84.22436523 91.11352539 C83.6694052 93.26677034 83.17552984 95.43616576 82.72436523 97.61352539 C81.92841922 101.45483006 81.41425277 103.82869409 79.22436523 107.11352539 C78.69404974 109.03765439 78.22060913 110.97785364 77.78686523 112.92602539 C76.72763793 117.32261711 75.71393992 121.27543108 73.22436523 125.11352539 C67.89682395 126.88937249 62.12586693 126.29943762 56.54589844 126.29882812 C54.29855395 126.30101402 52.05170099 126.31917991 49.80444336 126.33813477 C48.37280441 126.34106909 46.94116313 126.34305362 45.50952148 126.34399414 C43.55864624 126.35015747 43.55864624 126.35015747 41.56835938 126.35644531 C38.4598307 126.13063046 36.77344753 125.83564917 34.22436523 124.11352539 C32.01934271 120.80599161 31.29828308 116.90382365 30.22436523 113.11352539 C29.71368173 111.77627168 29.19260337 110.44294713 28.66186523 109.11352539 C27.25213522 105.48347061 26.75400704 101.97234428 26.22436523 98.11352539 C25.56436523 97.12352539 24.90436523 96.13352539 24.22436523 95.11352539 C22.39177107 90.63385076 22.03141266 86.93733976 22.22436523 82.11352539 C21.56436523 82.11352539 20.90436523 82.11352539 20.22436523 82.11352539 C19.76399895 80.7600485 19.30619987 79.40569839 18.84936523 78.05102539 C18.59413086 77.29692383 18.33889648 76.54282227 18.07592773 75.76586914 C17.04946626 72.56877124 16.14545618 69.34251838 15.22436523 66.11352539 C14.46130057 63.63155716 13.69191557 61.15260751 12.91186523 58.67602539 C12.47040254 57.26979311 12.02899803 55.86354256 11.58764648 54.45727539 C11.25047607 53.38413086 11.25047607 53.38413086 10.90649414 52.28930664 C10.23201146 50.13791449 9.56146248 47.98533829 8.89233398 45.83227539 C5.46290448 34.32279131 5.46290448 34.32279131 1.37670898 23.04321289 C-0.49051367 18.47503096 -1.08453619 15.05594814 -0.77563477 10.11352539 C-1.43563477 10.11352539 -2.09563477 10.11352539 -2.77563477 10.11352539 C-2.96975657 8.63521318 -3.15575608 7.15583223 -3.33813477 5.67602539 C-3.44254883 4.85231445 -3.54696289 4.02860352 -3.65454102 3.17993164 C-3.69450195 2.49801758 -3.73446289 1.81610352 -3.77563477 1.11352539 C-2.77563477 0.11352539 -2.77563477 0.11352539 0 0 Z " fill="#FDFDFD" transform="translate(685.775634765625,155.886474609375)"/>
<path d="M0 0 C3.02164626 -0.30425263 5.79397016 -0.41774865 8.8125 -0.375 C9.62009766 -0.38660156 10.42769531 -0.39820313 11.25976562 -0.41015625 C16.00302205 -0.38684786 19.13450391 -0.0329277 23 3 C27.03588819 7.48432021 28.43185288 11.96901664 28.25 18.015625 C27.54286839 23.62848215 24.20411312 27.48027739 20 31 C14.73011593 33.69920891 7.77460733 34.15009589 2 33 C-0.34375 31.26171875 -0.34375 31.26171875 -2 28 C-2.52913836 23.78021676 -2.46647244 19.62124694 -2.375 15.375 C-2.37371094 14.2303125 -2.37242187 13.085625 -2.37109375 11.90625 C-2.28125934 3.42188901 -2.28125934 3.42188901 0 0 Z " fill="#F8F8F8" transform="translate(254,179)"/>
<path d="M0 0 C3.27150399 2.13329323 4.65562502 3.78248052 6 7.4375 C6.32742188 8.3140625 6.65484375 9.190625 6.9921875 10.09375 C8.41193116 14.18789451 9.76645218 18.30111084 11.0703125 22.43359375 C11.95231904 25.1864677 11.95231904 25.1864677 14 28 C14.25 31.5625 14.25 31.5625 14 35 C11.43617721 37.56382279 10.43625685 37.25703311 6.87890625 37.265625 C5.86119141 37.26820313 4.84347656 37.27078125 3.79492188 37.2734375 C2.72822266 37.26570313 1.66152344 37.25796875 0.5625 37.25 C-1.03174805 37.26160156 -1.03174805 37.26160156 -2.65820312 37.2734375 C-3.67720703 37.27085937 -4.69621094 37.26828125 -5.74609375 37.265625 C-7.14879517 37.26224121 -7.14879517 37.26224121 -8.57983398 37.25878906 C-11 37 -11 37 -14 35 C-14.46857478 31.31922182 -13.69622782 28.6777609 -12.25 25.3125 C-11.88519531 24.44625 -11.52039063 23.58 -11.14453125 22.6875 C-10.76683594 21.800625 -10.38914062 20.91375 -10 20 C-9.30846334 18.27244373 -8.6208532 16.54330964 -7.9375 14.8125 C-7.29177942 13.20828794 -6.64595365 11.60411822 -6 10 C-5.731875 9.31421875 -5.46375 8.6284375 -5.1875 7.921875 C-3.89008209 4.70535975 -2.72866889 2.20892243 0 0 Z " fill="#FAFAFA" transform="translate(409,193)"/>
</svg>
